<svg xmlns="http://www.w3.org/2000/svg" id="Layer_1" viewBox="72 0 360 360">
  
  <defs>
    
  </defs>
  <path d="M317.97,4.61l2,.11c2.6,1.52,5.95,1.2,9.07,2.1l9.87,2.84,13.04,4.32c.21.07.45,0,.67.04l12.58,6.01c5.72,2.73,21.85,12.01,26.35,15.61l6.99,5.59c2.21,1.76,4.08,3.32,6.25,5.12,12.73,10.53,32.06,36.23,29.85,34.76l1.14.76.04.67c3.44,5.45,6.59,11.16,9.51,17.24l6.43,13.42c0,.21-.02.47.05.67l6.62,19.33c.03.22,0,.45.05.67,2.56,10.26,4.03,20.66,5.28,31.46.43,3.67-.39,7.53.38,11.06s.05,6.61-.05,10.12c-.19,6.83-.3,13.22-1.46,20.02s-2.41,13.98-4.12,20.64c-.11.42-.06.9-.11,1.33-5.44,17.35-12.59,34.04-22.59,49.32l-.05.67-5.42,7.87c-16.86,24.48-45.3,45.46-71.72,57.97-.2.06-.47-.04-.67.05-35.12,14.5-73.55,18.12-111.12,9.79-34.75-7.7-69.44-28.43-92.6-55.03-8.41-9.66-14.82-19.47-21.1-30.41-8.01-13.93-13.85-28.57-17.72-44.23-.33-1.33-.09-2.68-1.16-3.32-.03-.44-.04-.9-.11-1.33-.62-3.87-1.49-7.79-1.96-12.01l-1.85-16.86c-1.65-15.08,1.05-36.35,3.84-51.11.04-.22.03-.45.05-.67,3.29-9.96,6.79-24.16,11.95-33.92l9.24-17.49c2.68-5.07,12.51-18.91,16.2-22.99l5.41-5.97c3.27-3.6,6.59-7.19,10.37-10.21,2.68-2.14,4.56-4.74,7.32-6.71,7.63-5.43,14.75-11.14,22.9-15.67,3.44-1.92,6.79-3.42,9.75-5.54.2-.05.49.05.67-.04,14.9-7.75,30.91-12.54,47.31-15.92.67-.05,1.33,0,2-.11,4.16-.67,8.41-1.54,13.02-1.77,10.94-.54,21.83-.4,32.84-.09,5.19.14,9.98,1.61,14.78,1.86v-.02ZM166.75,257.11c-1.12.46-1.05,1.76-1.43,2.71-1.12,2.82-2.17,5.93-3.9,8.69-1.04,1.66-3.33-.24-3.88-1.59-2.79-6.9-5.28-13.39-8.63-19.86-.42,5.51-.23,10.26-.15,15.34.06,4.04,4.37,3.19,4.39,5.04.03,2.83-4.92.91-7.11,1.83l6.02,9.11c19.68,29.81,54.03,52.88,87.89,63.22,6.75,2.06,26.43,6.47,32.74,6.64,14.76.41,28.17,1.02,42.2-2.08l15.77-3.48c4.44-.98,8.02-2.46,12.29-4,21.65-7.8,40.7-19.78,57.61-34.9,1.7.14,6.29-5.53,9.27-8.07,1.04-.88.87-1.92,1.44-2.64l9.89-12.64,6.66-10.2c-1.13-.49-2.07-1.3-3-2.16-2.67,1.31-5.14,2.29-8.17,1.45-8.36-2.32-8.01-15.37-4.49-20.77,2.98-4.57,7.92-5.75,13.24-4.82.69-1.59.93-4.53-.6-5.51-1.31-.84-2.49-.69-2.37-2.31s1-1.55,2.85-1.88c1.45-.26,4.74-1.91,5.8-.32l.66,29.57c11.82-19.64,18.75-41.04,21.66-63.57,1.64-12.68,1.5-24.17.04-36.79-2.78-24.13-9.87-45.92-22-66.7-3.28-5.62-6.39-10.96-10.09-15.91l-1.5-2c-2.55-3.41-5.69-6.33-7.89-9.96-.49-.81-.46-1.72-1.47-2.62-3.25-2.88-9.19-9.84-11.25-10.11-.61-.7-1.54-.97-1.96-1.91-1.05-2.36-3.43-3.41-5.37-4.73-8.34-5.66-16.17-11.61-25.41-16.59-26.87-14.48-56.33-21.98-86.9-20.42-52.45,2.69-102.37,30.95-130.94,74.75-15.51,23.79-25.35,49.72-28.1,77.89-.92,9.42-.76,18.67-.05,28.18,1.86,24.98,9.61,48.35,21.64,70.07.45.82.81,1.5,1.42,1.31.76-.24,1.07-1.07,1.07-1.94l-.12-21.81-3.58-3.62c.78-1.99,2.7-2.14,4.74-1.64,1.59.18,4.58-.97,5.81.23l9.71,21.94,9.64-22.21c2.95-.41,5.62-.1,8.52-.2,1.07.25,1.45.96,1.44,1.69-.04,3.03-3.5,1.02-3.49,4.96l.05,20.59c0,3.91,4.53,3.21,4,5.56-.11.46-.58,1.04-1.35,1.04h-9.95c-1.58.01-2.19-.89-2.07-2.23.08-.87,1.41-1.01,2.34-1.56.24-5.01.38-10.82-.13-16.04-1.48,2.69-2.56,5.32-3.42,7.94l-.03.04ZM425.44,262.13c.71-2.83,1.66-14.17-3.14-14.35-2.11-.08-3.61.32-4.74,2.27-2.38,4.1-2.26,9.39,1.13,13.16,1.25,1.39,6.25.9,6.74-1.07h.01Z" fill="rgb(200, 167, 98)"/>
  <path d="M391.91,49.2c1.51,1.8,3.03,4.18,5.37,4.73.42.94,1.35,1.21,1.96,1.91,3.95,4.49,8.22,8.8,12.72,12.73,2.2,3.63,5.34,6.55,7.89,9.96.34.78.75,1.55,1.5,2,3.7,4.95,6.8,10.28,10.09,15.91,12.13,20.78,19.22,42.57,22,66.7,1.45,12.62,1.6,24.11-.04,36.79-2.92,22.52-9.84,43.92-21.66,63.57l-.66-29.57c-1.06-1.59-4.35.07-5.8.32-1.85.33-2.73.21-2.85,1.88s1.06,1.48,2.37,2.31c1.53.98,1.29,3.93.6,5.51-5.33-.93-10.26.25-13.24,4.82-3.52,5.4-3.87,18.45,4.49,20.77,3.03.84,5.51-.14,8.17-1.45.94.85,1.87,1.67,3,2.16l-6.66,10.2-9.89,12.64c-3.79,3.3-7.41,6.91-10.7,10.71-16.91,15.12-35.97,27.1-57.61,34.9-4.27,1.54-7.85,3.02-12.29,4l-15.77,3.48c-14.03,3.1-27.44,2.48-42.2,2.08-6.31-.17-25.99-4.58-32.74-6.64-33.86-10.34-68.21-33.42-87.89-63.22l-6.02-9.11c2.19-.91,7.13,1.01,7.11-1.83-.02-1.85-4.33-1-4.39-5.04-.08-5.09-.27-9.83.15-15.34,3.36,6.47,5.85,12.96,8.63,19.86.55,1.35,2.84,3.25,3.88,1.59,1.73-2.77,2.79-5.87,3.9-8.69,1.11-.47,1.11-1.72,1.43-2.71.86-2.62,1.94-5.25,3.42-7.94.51,5.22.38,11.03.13,16.04-.93.55-2.27.69-2.34,1.56-.12,1.35.49,2.24,2.07,2.24h9.95c.77,0,1.24-.59,1.35-1.05.54-2.35-3.99-1.65-4-5.56l-.05-20.59c0-3.94,3.45-1.93,3.49-4.96,0-.74-.36-1.44-1.44-1.69-2.9.09-5.57-.21-8.52.2l-9.64,22.21-9.71-21.94c-1.23-1.2-4.22-.05-5.81-.23-2.04-.5-3.95-.35-4.74,1.64l3.58,3.62.12,21.81c0,.87-.31,1.71-1.07,1.94-.61.19-.97-.5-1.42-1.31-12.03-21.72-19.78-45.09-21.64-70.07-.71-9.51-.86-18.76.05-28.18,2.74-28.17,12.58-54.11,28.1-77.89C177.22,43.14,227.15,14.88,279.6,12.19c30.57-1.57,60.03,5.94,86.9,20.42,9.24,4.98,17.07,10.93,25.41,16.59ZM293.71,65.18c.01.81.79-12.85-1.27-9.81-.15.23-.48.74-.48,1.2l.18,20.56c0,.47.58,1.15.85,1.11,1.7-.29.77-10.38.72-13.05h0ZM284.62,78c.22.85.31,1.18,1.04,1.19.47,0,1.23-.45.97-1.37l-4.76-17.26c-.22-.8-.93-1.13-1.2-.86-.45.45-.66.68-.47,1.39l4.42,16.91ZM301.59,77.01l4.22-17.2c.15-.63-.97-.59-1.16-.26-.15.25-.53.48-.66.98l-4.25,16.38c-.19.72.27,1.34.66,1.43.5.12.98-.46,1.2-1.33h-.01ZM314.35,69.31c1.14-2.2,4.12-3.96,2.27-6.61-.81.89-13.11,19.88-9.23,18.53,2.72-3.78,4.72-7.6,6.96-11.92h0ZM268.87,63.54c-1.35,1.37,9.88,18.21,10.07,18.31,4.05,2.22-8.48-17.62-10.07-18.31ZM260.82,71.78c-9.19-5.89,13.16,15.91,12.35,13.81,1.67-1.96-12.17-13.69-12.35-13.81ZM326.41,72.28c.6-.6-.41-1.38-1.14-1.16-1.93,2.21-12.54,11.69-11.83,13.03.25.47.63.31.89.36,1.12.22,9.94-10.06,12.07-12.23h0ZM333.7,80.62c-1.48-.81-16.17,8.41-14.19,9.16-.19,2.82,15.58-9.47,14.19-9.16ZM266.98,90.06c-4.34-3.93-8.87-6.35-13.66-8.87-12.58-6.62,9.83,8.7,5.09,5.06,2.45,1.89,4.99,4.81,8.57,3.81ZM316,90.58l-3.22-2.84c-1.75-1.55-3.14-3.06-5.5-2.58-10.14-4.68-22.16-4.21-31.54,2.28-6.01,4.16-11.66,7.98-16.66,13.96,18.85,19.92,44.55,21.66,65.22,2.75.87-.8,2.82-1.64,2.88-3.02-3.05-4.3-7.4-7.21-11.17-10.55h0ZM259.2,95.5c-.25-.02-.43-.39-.98-.51l-9.27-2.06c-.67-.15-1.32-.49-1.48.02-.07.24-.21,1.22.14,1.32,17.66,5.25,9.02,1.02,11.59,1.23ZM331.35,93.83c-1.15.02-4.05.15-3.7,1.83.7,1.72,4.32.9,5.05-.48,2-.12,4.19-.47,6.19-2.11-2.52-1.68-5.48.73-7.54.76h0ZM340.68,105.68c7.09-1.19-16.1-2.45-11.24.08,3.77.19,7.37.18,11.24-.08ZM257.55,106.03c1.36-2.25-13.02-.88-12.32-.33-1.56,2.12,12.53.64,12.32.33ZM336.88,117.9c.86.29,1.24-1.03,1-1.06-.23-.03-.28-.71-.75-.85l-15.88-4.7c-.88-.26-1.29.26-1.3.94,0,.6.32.78,1.19,1.02,5.28,1.43,10.24,2.81,15.74,4.66h0ZM249.62,118.34l16.78-4.85c.41-.12.22-1.56-.17-1.46-.34.08-1.1-.32-1.58-.17l-15.14,4.83c-.43.14-.61.69-.75.86s.04,1.03.87.79h0ZM218.72,121.17c-.91.33-2.08.22-2.96,1.28,1.29,2.03,3.18,2.4,4.98,2.72.67.59,1.38,1.29,1.94,1.96.25,1.7,1.22,3.24,2.58,4.83,1.14-.91.46-1.88.69-2.65.88-2.95,3.42-4.69,6.43-5.83.92-.35-.15-2.05-.99-2.25-5.86-1.38-4.48-6.75-6.37-6.69-2.01.06-.72,4.56-6.31,6.62h.01ZM331,128.4c.71.46,1.39-.09,1.44-.33.31-1.5-16.43-11.36-19.6-12.19-.27,1.53,1.1,2.33,2.2,2.95,5.38,3.06,10.48,6.03,15.95,9.57h0ZM256.38,128.45l16.1-10.07c.39-.24.58-.73.72-.91s-.02-.76-.29-.8c-1.87-.3-16.5,9.67-19.69,11.65.81,1.38,2.05.82,3.15.13h.01ZM269.15,131.34l10.56-10.99c.32-.34.26-1.51-.07-1.5-.29.02-1.1.21-1.43.55l-16.14,16.47c-.67.68-1.39,1.6-.54,2.39,2.97-1.63,5.06-4.24,7.63-6.92h-.01ZM325.3,135.45l-13-12.65c-1.69-1.65-3.05-3.51-5.58-4.18.73,2.47,2.43,4.01,4.18,5.65l14.42,13.54c.67.03.77-1.61-.01-2.37h-.01ZM284.75,120.79c-1.32-.54-1.9.55-2.37,1.42-4.28,7.85-8.61,15.34-12.71,23.91,3.3.59,13.23-22.21,15.08-25.33ZM304.59,125.88c3.37,6.02,7.14,13.7,11.38,18.83.35.42.44-.03.79-.28.43-.31.14-.81-.17-1.33l-10.53-17.96c-.54-1.79-2.11-2.98-3.3-4.91-2.15-1.71,1.9,8.05,1.84,5.64h-.01ZM306.11,147.45l-7.16-25.14c-.12-.42-.8-.52-.91-.69-.15-.23-.5-.15-.55.06-.08.33-.15.89-.05,1.29l6.99,25.55c.13.47.76.69.91.86.27.32.55.09.57-.18.02-.37.43-.93.19-1.75h0ZM246.04,143.14c-1.38,1.51-2.53,3.37-2.72,5.38-.68.94-1.46,2.16-1.92,3.3-2.08,1.27-3.48,3.7-4.12,6.03-1.94,1.38-3.27,3.91-2.95,6.27.71,5.36,7.4,4.17,8.56,5.91,1.08,1.62-2.51,7.65-.32,9.28l3.58,2.67c-3.38,8.9,4.08,5.51,2.26,12.36-1.44,5.42,2.37,11.31,5.65,11,3.82-.36,8.01.51,11.72-.45,5.96-1.54,11.05.97,12.77,7.15,1.01,3.64,1.04,7.48,1.61,11.61,9.12.02,17.79-.04,26.76-.2l31.55-.57c-8.59-11.67-14.52-31.9-8-42.61l5.5-9.04c2.29.11,2.35-2.73,3.37-4.09,16.49-21.99,2.68-46.23.29-45.94-2.07.25-3.04,16.06-21.61,26.73-18.38,10.56-44.42,7.69-57.7-5.06l-10.43-10.02-3.85,10.29h0ZM285.18,139.51c1.51-6.12,3.27-11.58,3.99-17.49-.88-.24-1.79.91-1.96,1.78-1.78,8.82-4.81,17.12-5.75,26.41,3.46-2.67,2.79-6.93,3.72-10.7ZM292.84,121.98c-.25,9.87-.73,18.98.04,28.95,2.71,1.6,1.65-30.15-.04-28.95ZM368.61,156.5c.63,5.95-1.52,11.64-6.18,15.93-3.38,3.11-7.87,3.6-12.68,4.58,4.06,3.56,9.61,4.19,14.12,2.89,5.53-1.59,8.77-4.76,11.4-9.4s3.9-8.76,1.66-14.4c-2.03-5.12-5.44-9.57-11-11.46-1.76-.6-3.48-2.27-5.63-.79,4.25,3.64,7.15,7.4,8.3,12.65h.01ZM211.72,156.74c1.31-3.95,2.97-5.43,6.66-6.75-2.1-1.46-3.74-.72-4.92-1.86s-.88-2.76-1.89-4.49c-.99,3.75-2.59,5.38-6.48,6.37,3.82,1.16,5.04,2.68,6.63,6.72h0ZM218.02,178.49c-1.43.95-2.84,1.67-3.94,2.96,1.75.99,2.34,2.89,4.02,2.37.21.17.33.44.54.6-.04,1.74,1.29,3.17,2.44,4.5,1.14-1.46,1.07-2.68,1.61-3.83s1.24-2.32,2.52-2.61c.97-.22,2.04-.3,2.99-1.21-2.95-1.2-4.73-2.66-6.19-4.78-.45-.65-.26-1.51-1.44-2.36-1.02,1.7-1.9,2.95-2.56,4.36h0ZM432.55,227.1c-3.19,1.39,4.84.02,2.66,2.22-.81.82-4.56-.49-3.56,1.46.27.53,3.28,1.09,4.84-.58.49-.52.25-1.41.1-2.36-.18-1.13.59-2.48.14-3.33-.99-1.85-4.61-1.26-4.92-.64-.23.46-.07.95,0,1.72,1.31-.42,2.7-1.69,4,.33-1.19.96-2.41.42-3.26,1.18ZM442.58,224.96c-.97.11-1.83.72-1.98,1.72l-.11.69c-.1.67,4.14.41,2.71,1.93-.82.88-4.07-.58-3.59,1.18,1,1.63,5.16.95,5.24-1.27.04-1.14-1.04-2.06-.39-2.94.54-.74.41-1.68-.03-2.16-1-1.09-4.17-1.06-4.51-.22-.12.29-.26.66-.04,1.27,1.11-.38,2.2-1.06,2.7-.21h0ZM364.62,249.14c-2.01,1.07-2.28,3.59-2.88,5.75-1.82,6.51,1.55,12.33,7.44,14.85,2.5,1.07,4.98-1.74,6.98-1.67,4.32,3.11,9.9-1.03,9.77-.54.21-.77.76-1.83.38-2.41-1.69.6-2.53.21-3.04-.32-1.07-1.11-.14-2.4-.14-3.7l.1-28.58c-3.3,2.7-8.57.43-9.24,3.69-.27,1.33,1.38,1.7,2.95,1.52.79,2.15.21,4.34.29,6.63-4.7-1.58-9.92-.18-12.61,4.78h0ZM246.74,235.54c-1.8.54-2.42,2.35-1.89,3.72.39,1,1.79,1.96,3.15,1.6,1.22-.32,2.3-1.93,1.92-3.14-.31-.98-1.6-2.66-3.17-2.18h0ZM325.35,235.54c-1.82.54-2.36,2.32-1.84,3.73.37,1,1.77,1.93,3.1,1.59s2.31-1.79,1.91-3.17c-.28-.95-1.53-2.63-3.16-2.15h-.01ZM281.29,265.68c-1.2,1.11-3.37-.08-4.43,2.36,4.02.79,7.86.52,11.54.2.29-.05.26-1.45-.02-1.48-1.47-.09-2.91-.59-3.78-1.68-.02-1.16-.7-2.41-.61-3.91.4-6.37-.53-12.43.48-18.78l10.77,24.3c.38.86.54,1.5,1.63,1.07.44-.17.24-.89.5-1.23,2.79-3.58,7.29-18.31,10.7-23.31.67,3.79,1.46,20.95-.81,23.26-1.09.24-2.39.36-3.44,1.33,4.69.24,8.72.21,12.9-.14-1.54-1.26-3.91-1.3-3.92-3.25l-.18-22.64c-.02-2.78,1.66-3.63,4.43-4.64-2.66-1.5-5.11-.41-7.68-.73-1.75-.22-1.77,1.23-2.12,2.03l-9.78,22.21c-1.92-4.48-3.58-8.46-5.47-12.28s-2.49-7.8-4.91-11.69c-3.24-.18-6.67-.92-10.17.37,2.74,1.32,5.06,1.11,5.06,4.09l.03,20.68c0,1.54-.37,2.74-.71,3.87h-.01ZM231.96,241.15c-1.24,1.86-2.45,3.75-4.42,5.57.29.66,2.31.52,2.32,1.37l.25,16.41c.05,3.12,3.24,4.75,5.88,4.08,2.1-.53,4.73-2.15,4.32-4.84-2.16,1.39-3.87,2.38-5.64,1.38-1.08-2.99-.8-13.74-.26-17.53,1.68.12,4.74.57,4.77-1.13s-3.11-1.26-4.66-1.1l-.84-7.22c-1.76.69-1.2,2.19-1.73,3h0ZM211.33,245.85c-1.82,1.21-2.83,2.76-2.77,5,.21,8.51,15.37,7.67,10.86,14.94-2.31,1.23-5,.76-7.41-.05-.46-.57-.74-1.44-1.27-1.92-.55-.88-.25-2.82-1.19-3.32-2.22-4.27-1.61,9.09-1.15,8.5,1.28-.01,1.88-1.36,3-1.18l.67.03c1.74,2.53,11.52.9,11.34-2.74,4.61-11.4-17.22-10.35-10.05-18.58l4.68-.04c1.47,1.3,2.58,2.71,3.31,4.61.12.32-.09.78-.03,1.04.08.31,1.18.59,1.23.18.3-2.4.09-4.6.13-7.16-5.26.15-6.89-2.28-11.35.68h0ZM259.95,247.18c-3.12,2.7-4.29,5.88-4.1,10.73.16,4.18,1.89,8.55,6.1,10.21,3.59,1.42,8.29.51,10.57-2.96.77-1.18,3.26-1.99,1.43-4.45-2.95,4.53-7.32,5.01-11.3,3.05-3.63-3.99-4.08-9.57-2.04-14.62,2.08-2.1,4.67-3.46,7.42-1.98.97,1.55,1.67,4.43,3.7,4.7.66.09,1.61-.04,2.02-1.02.7-1.66-.23-4.31-2.39-4.98-3.6-2.85-8.35-1.32-11.4,1.33h-.01ZM351.23,249.2c.91,3.26,1.14,14.79.38,16.57-.35.82-1.66.81-3.03,1.88l10.68.36c-.5-1.65-2.95-1.14-3-2.48l-.53-14.74c-.09-2.45-.96-4.37-2.98-5.01-1.14-.36-3.1-3.76-10.65,2.44l-1.32-3.15c-2.39.44-4.5.64-6.36,1.97.88,1.11,2.07.59,3.01,1.35l.2,15.42c.03,2.03-1.16,3.03-2.93,3.61,1.39,1.59,3,.37,4.61.4,2.07.03,4.07,1.09,6.01-.37-.71-.83-3.41-.72-3.36-2.39.13-4.55-.78-9.39.25-13.83.89-3.81,6.57-4.34,9.02-2.05v.02ZM390.57,249.15c-3.64,7.62-2.65,16.37,5.19,19.18,3.33,1.19,6.09.17,8.82-1.76,1.55-1.1,3.86-2.47,2.71-5.27-1.59,1.34-2.97,2.2-4.05,3.33-2.69.71-5.5.8-7.85-1.21-1.96-1.68-3.45-4.95-2.9-7.65l14.6-.41c1.81-3.69-1.5-7.74-4.44-9.55-4.38-2.7-9.88-1.24-12.07,3.34h-.01ZM198.15,262.52c1.51-4.72,4.22-9.13,5.21-14.05.92-.91,2.27-1.07,3.7-1.83.63-1.73-8.96-2.71-8.96.02,0,.75,2.08.55,2.39,1.13.53.98-.08,2.27-.44,3.37l-3.5,10.5c-3.23-3.57-4.46-9.07-6.6-13.59.99-.75,3.04-1.45,2.35-2.51-2.86-.56-6.64-.81-9.38.02-1.73.78,1.25,1.69,1.58,2.38,2.96,6.12,6.18,12.34,8.53,18.8,1.12,3.07-1.24,7.53-3.61,8.97-1.82.64-3.61-1.31-5.14-.36-1.71,1.07-.86,3.34.23,4.3,3.66,3.25,7.96-3.8,9.39-6.1,2.28-3.65,3.07-7.4,4.24-11.06h.01ZM244.62,247.86c.45.62.76,1.49.75,2.57l-.19,15.25c-.83,1.12-2.43.8-3,2.35,3.8.69,7.09.39,10.74.12-.8-1.98-2.43-1.71-3.47-2.42l-.18-20.44c-2.65-.2-5.01.42-7.39,1.68.86,1.32,1.92.77,2.75.9h-.01ZM323.31,247.87c1.08.68.59,16.17.43,17.76-.13,1.32-2.54,1.09-3.14,1.98,3.57.48,6.82.48,10.52.58.17-1.66-1.44-1.4-2.32-1.73l-.8-3.34-.05-17.93c-2.75-.12-5.41.05-7.71,1.8.93,1.44,2.16.71,3.07.89h0Z" fill="rgb(229, 225, 214)"/>
  <path d="M425.44,262.13c-.49,1.98-5.5,2.46-6.74,1.07-3.39-3.77-3.51-9.06-1.13-13.16,1.13-1.94,2.63-2.35,4.74-2.27,4.8.19,3.85,11.53,3.14,14.35h-.01Z" fill="rgb(229, 224, 213)"/>
  <path d="M411.96,68.56c-4.5-3.93-8.77-8.24-12.72-12.73,2.06.27,8,7.24,11.25,10.11,1.01.89.98,1.81,1.47,2.62Z" fill="rgb(195, 168, 127)"/>
  <path d="M400.56,303.79c3.3-3.8,6.91-7.41,10.7-10.71-.56.72-.4,1.75-1.44,2.64-2.97,2.54-7.57,8.21-9.27,8.07h0Z" fill="rgb(193, 164, 117)"/>
  <path d="M397.28,53.93c-2.34-.55-3.86-2.93-5.37-4.73,1.94,1.32,4.32,2.37,5.37,4.73Z" fill="rgb(197, 171, 128)"/>
  <path d="M421.34,80.52c-.74-.45-1.16-1.23-1.5-2l1.5,2Z" fill="rgb(207, 189, 156)"/>
  <path d="M165.33,259.82c.38-.96.31-2.25,1.43-2.71-.32.99-.32,2.24-1.43,2.71Z" fill="rgb(207, 190, 158)"/>
  <path d="M339.34,167.15c-1.51.82-2.46,2.6-3.37,4.09l-5.5,9.04c-6.52,10.71-.58,30.94,8,42.61l-31.55.57c-8.97.16-17.64.21-26.76.2-.57-4.13-.6-7.98-1.61-11.61-1.72-6.19-6.81-8.69-12.77-7.15-3.71.96-7.9.08-11.72.45-3.28.31-7.09-5.58-5.65-11,1.82-6.84-5.64-3.45-2.26-12.36l-3.58-2.67c-2.19-1.63,1.4-7.66.32-9.28-1.16-1.73-7.85-.55-8.56-5.91-.32-2.37,1.01-4.9,2.95-6.27s3.24-3.86,4.12-6.03c.46-1.14,1.24-2.36,1.92-3.3,1.81-1.07,2.55-3.35,2.72-5.38l3.85-10.29,10.43,10.02c13.28,12.76,39.32,15.62,57.7,5.06,18.57-10.66,19.54-26.48,21.61-26.73,2.39-.29,16.19,23.95-.29,45.94h0Z" fill="rgb(72, 30, 88)"/>
  <path d="M307.28,85.16c3.69,1.7,5.39,4.93,8.72,5.42,3.77,3.33,8.12,6.25,11.17,10.55-.06,1.38-2,2.22-2.88,3.02-20.67,18.92-46.36,17.18-65.22-2.75,5.01-5.98,10.65-9.8,16.66-13.96,9.37-6.48,21.4-6.96,31.54-2.28h0ZM286.66,85.82c-1.24-.4-2.25.5-3.34.7-1,.19-1.31,1.14-2.31,1.63-2.31,1.12-4.89,1.81-6.28,3.74-1.39-.14-2.31,1.65-3.32,2.13-2.03.97-3.82,2.03-5.18,3.93-.69.96-2.66.9-3.02,3.05,1.89-.25,2.86-1.76,4.12-2.69,1.51-1.11,3.42-1.77,4.63-3.3.21.04.47.1.68.12.34.02.44-.62.68-.69.79-.21,1.28-1.11,1.99-1.4,3.14-1.3,6.45-2.29,9.39-3.87,5.19-1.36,10.59-1.2,15.88-.58,1.92,1.25,7.3,2.55,10.61,4.52,1.03.62,2.44,1.22,3.43,1.92,2.77,1.95,5.53,3.94,8.6,5.41-2.82-3.11-5.35-6.04-8.64-7.32-.58-.23-.92-1.3-1.73-1.27-.3.01-.6-.16-.9-.18-2.02-1.78-4.54-3.25-7.23-3.66,1.13-1.72-4.25-2.16-6.08-2.87-2.13-.82-10.62-1.04-11.97.68h0ZM289.93,113.2c5.68,2.14,12.11-1.76,13.84-7.21,1.74-5.49-.69-11.8-6.55-14.03s-12.8,1.04-14.69,6.73c-2.01,6.04.87,12.04,7.41,14.51h-.01ZM279.29,94.61c-3.14,1.2-13.53,7.26-13.36,8.88.18,1.74,8.15,5.88,10.05,6.96.91.52,1.4,1.63,2.73,1.37,1.72-.34,2.68,1.79,4.77.94-1.83-1.96-2.46-3.87-3.44-5.56.25-5.05-1.45-9.21,2.67-13.38-1.53-1.48-2.45.42-3.42.79ZM321.03,103.02c-5.33-4.3-10.16-7.65-16.41-9.46,3.36,6.62,3.04,13.21-1.4,19.31,6.8-1.37,12.58-4.9,17.81-9.85Z" fill="rgb(73, 31, 88)"/>
  <path d="M291.99,248.37c-.49,1.36,4.42,12.54,5.02,12.77.81.31,1.3-.44,1.99-1.35,1.51,1.45-2.18,4.08-1.63,6.74-.26.33-.06,1.06-.5,1.23-1.09.43-1.25-.21-1.63-1.07l-10.77-24.3c-1,6.35-.08,12.41-.48,18.78-.09,1.51.59,2.76.61,3.91.03,1.36.72,1.88,2.17,2.48l-7.45-.05c1.41-.41,1.69-.91,1.97-1.82.35-1.13.72-2.33.71-3.87l-.03-20.68c0-2.98-2.33-2.77-5.06-4.09,3.5-1.29,6.93-.54,10.17-.37,2.43,3.89,3.1,8.01,4.91,11.69h0Z" fill="rgb(77, 35, 90)"/>
  <path d="M196.55,261.67c.5-.29.69-.83,1.28-1.26.38.98.16,1.55.32,2.12-1.17,3.66-1.96,7.41-4.24,11.06-1.43,2.3-5.73,9.35-9.39,6.1-1.09-.97-1.94-3.24-.23-4.3,1.53-.96,3.33,1,5.14.36,2.37-1.44,4.73-5.89,3.61-8.97-2.35-6.46-5.57-12.67-8.53-18.8-.34-.69-3.31-1.61-1.58-2.38,2.73-.84,6.51-.58,9.38-.02.68,1.07-1.37,1.77-2.35,2.51,2.14,4.52,3.37,10.02,6.6,13.59h-.01Z" fill="rgb(75, 35, 90)"/>
  <path d="M402.64,245.81c2.94,1.81,6.26,5.86,4.44,9.55l-14.6.41c-.55,2.7.94,5.97,2.9,7.65,2.35,2.02,5.16,1.92,7.85,1.21,1.17-.31,2.12-.62,3.42-1.39-.29,2.04-2.22,1.95-2.08,3.33-2.73,1.93-5.5,2.96-8.82,1.76-7.84-2.81-8.83-11.56-5.19-19.18,1.26-.34,3.99-4.76,6.13-2.87-2.66-.22-4.27,3.19-4.09,4.94.06.56-.73,2.1.15,2.26,3.4.61,6.7.35,10.22.06.27-2.04-.44-4.33-1.67-5.7-.63-1.66-2.52-1.68-4.1-2.38,2.12-.92,3.7.44,5.44.36h0Z" fill="rgb(78, 37, 94)"/>
  <path d="M307.26,266.47c.97-.22,1.89-.68,1.9-2.3l.12-21.03c0-.47-.42-1.29-.53-1.68-.96-3.34-8.1,18.43-9.43,18.44l7.92-21.46c.35-.8.38-2.24,2.12-2.03,2.57.32,5.02-.76,7.68.73-2.77,1.01-4.45,1.86-4.43,4.64l.18,22.64c.02,1.94,2.38,1.98,3.92,3.25-4.18.35-8.21.37-12.9.14,1.05-.97,2.35-1.09,3.44-1.33h0Z" fill="rgb(77, 37, 93)"/>
  <path d="M352.74,245.79c-2.59.07-5.21-.5-7.53,1.16,1.94.36,3.51-.21,5.23.41.98.35.63,1.28.78,1.84-2.45-2.29-8.14-1.76-9.02,2.05-1.04,4.44-.12,9.28-.25,13.83-.05,1.67,2.65,1.56,3.36,2.39-1.94,1.46-3.94.4-6.01.37-1.61-.03-3.23,1.19-4.61-.4,1.77-.58,2.96-1.58,2.93-3.61l-.2-15.42c-.95-.76-2.13-.25-3.01-1.35,1.86-1.34,3.98-1.53,6.36-1.97l1.32,3.15c7.55-6.21,9.51-2.8,10.65-2.44h0Z" fill="rgb(81, 42, 95)"/>
  <path d="M364.62,249.14c-3.15,6.2-2.97,16.73,3.85,19.28s10.09-7.12,10.38.28c1.93-.21,4.27-.91,6.47-1.58-.82-1.35-1.9-1.04-2.39-1.41-1.04-.78-.75-2.09-.76-3.26l-.24-27.72c-2.14.1-4.94-.19-7.02,1.59.89,1.45,2.09.67,2.98.7.03,2.63.97,5.2.19,8.36-4.09-1.5-8.45-1.25-10.78,1.77-.63.81-1.94,1.25-2.67,1.99,2.69-4.96,7.91-6.35,12.61-4.78-.08-2.3.49-4.49-.29-6.63-1.57.17-3.22-.2-2.95-1.52.67-3.26,5.95-.99,9.24-3.69l-.1,28.58c0,1.31-.93,2.59.14,3.7.51.53,1.35.92,3.04.32.38.58-.17,1.64-.38,2.41.13-.49-5.45,3.65-9.77.54-2-.06-4.48,2.75-6.98,1.67-5.89-2.52-9.27-8.34-7.44-14.85.61-2.16.87-4.68,2.88-5.75h0Z" fill="rgb(226, 222, 212)"/>
  <path d="M260.6,249.13c-2.04,5.05-1.59,10.62,2.04,14.62,5.25,5.78,9.99-2.68,9.87,1.4-2.28,3.48-6.98,4.38-10.57,2.96-4.21-1.66-5.93-6.03-6.1-10.21-.19-4.85.98-8.02,4.1-10.73.42-.08.6-.81,1.69-.55-.73.83-.72,1.72-1.04,2.5h.01Z" fill="rgb(76, 36, 93)"/>
  <path d="M213.36,246.54c-7.17,8.23,14.66,7.18,10.05,18.58-.98.58-1.8,1.35-2.72,2.01-.5-.1-.99-.28-1.33-.67.07-.2-.04-.5.07-.67,4.51-7.27-10.65-6.43-10.86-14.94-.06-2.24.95-3.79,2.77-5,.76-.11,1.54.08,2.03.69h-.01Z" fill="rgb(77, 37, 93)"/>
  <path d="M234.68,265.88c1.15,1,2.35.11,4.09.25-.91,1.32-2.36,1.28-2.78,2.45-2.64.67-5.83-.96-5.88-4.08l-.25-16.41c0-.86-2.03-.71-2.32-1.37,1.97-1.82,3.19-3.71,4.42-5.57l1.51-.66c-.73,2.36.77,4.18.48,5.96l-.77,4.69c.15-.93-.59,12.91,1.51,14.74h0Z" fill="rgb(78, 37, 93)"/>
  <path d="M352.74,245.79c2.01.63,2.89,2.55,2.98,5.01l.53,14.74c.05,1.33,2.5.83,3,2.48l-10.68-.36c1.37-1.08,2.68-1.06,3.03-1.88.75-1.78.53-13.31-.38-16.57-.16-.56.19-1.48-.78-1.84-1.73-.63-3.29-.05-5.23-.41,2.32-1.66,4.94-1.09,7.53-1.16h0Z" fill="rgb(78, 39, 92)"/>
  <path d="M225.96,129.32c-.19.16-.99.52-1.34.12l-1.94-2.3c-.57-.67-1.27-1.36-1.94-1.96-.99-.87-1.69-1.56-3.53-2.1.68-.85,1.18-1.22,1.5-1.91,5.59-2.05,4.29-6.55,6.31-6.62,1.9-.06.51,5.31,6.37,6.69.84.2,1.91,1.9.99,2.25-3,1.13-5.55,2.87-6.43,5.83h0Z" fill="rgb(76, 35, 90)"/>
  <path d="M375.28,169.16v1.33c-2.63,4.65-5.87,7.81-11.4,9.4-4.5,1.3-10.05.67-14.12-2.89,4.8-.98,9.3-1.46,12.68-4.58,4.66-4.29,6.81-9.99,6.18-15.93h.67c.81,8.09-3.47,19.31-13.41,20.16,1.17,1.38,2.5-.51,4.16.73-1.54,1.65-3.13-.67-5.57.45,3.59,2.07,7.36,1.3,10.95-.58.5-.26,1.68-.17,2.1-.5.33-.26.21-.77.44-1.77,3.6.18,5.78-2.64,7.33-5.82h-.01Z" fill="rgb(195, 166, 102)"/>
  <path d="M249.44,265.72c0,.41.38,1.07.1,1.41-.45.56-2.79.34-3.78.29-.93-.04.06-1.02.07-1.74l.23-17.23c0-.6-.72-.79-1.44-.59-.83-.14-1.89.42-2.75-.9,2.38-1.27,4.74-1.88,7.39-1.68l.18,20.44h0Z" fill="rgb(79, 40, 94)"/>
  <path d="M327.97,266.46c-.99-.52-2.06-.51-2.66-1.25l-.33-16.81-.79,18.45c1.07.6,2.68.53,3.78-.39.49,0,.73-.05.83-.01.88.34,2.49.08,2.32,1.73-3.7-.1-6.95-.1-10.52-.58.6-.89,3.01-.66,3.14-1.98.16-1.6.65-17.09-.43-17.76-.25-.56-.91-.56-1.39-1.18,2-.32,3.43-.95,5.36-.9l.03,17.99c0,1.05.91,1.84.65,2.69h.01Z" fill="rgb(82, 41, 96)"/>
  <path d="M306.11,147.45c.23.82-.17,1.38-.19,1.75-.02.27-.29.5-.57.18-.15-.17-.78-.4-.91-.86l-6.99-25.55c-.11-.4-.03-.95.05-1.29.05-.2.39-.29.55-.06.11.17.79.27.91.69l7.16,25.14h0Z" fill="rgb(202, 186, 153)"/>
  <path d="M285.18,139.51c-.93,3.77-.26,8.03-3.72,10.7.94-9.29,3.97-17.59,5.75-26.41.17-.86,1.08-2.02,1.96-1.78-.73,5.91-2.48,11.36-3.99,17.49Z" fill="rgb(201, 187, 153)"/>
  <path d="M284.75,120.79c-1.85,3.12-11.78,25.92-15.08,25.33,4.11-8.57,8.44-16.07,12.71-23.91.47-.87,1.05-1.95,2.37-1.42Z" fill="rgb(198, 185, 148)"/>
  <path d="M325.3,135.45c.78.76.68,2.4.01,2.37l-14.42-13.54c-1.75-1.65-3.45-3.18-4.18-5.65,2.53.67,3.89,2.53,5.58,4.18l13,12.65h.01Z" fill="rgb(200, 186, 152)"/>
  <path d="M211.72,156.74c-1.59-4.04-2.81-5.57-6.63-6.72,3.89-.99,5.49-2.62,6.48-6.37,1.01,1.73.67,3.31,1.89,4.49s2.82.4,4.92,1.86c-3.69,1.32-5.34,2.8-6.66,6.75h0Z" fill="rgb(194, 165, 98)"/>
  <path d="M269.15,131.34c-2.57,2.67-4.66,5.29-7.63,6.92-.84-.79-.12-1.71.54-2.39l16.14-16.47c.33-.33,1.14-.53,1.43-.55.34-.02.4,1.16.07,1.5l-10.56,10.99h0Z" fill="rgb(200, 188, 155)"/>
  <path d="M221.35,176.49c.73,2.13,2.32,3.63,4.7,4.76-.19.59-.65.85-.83,1.23-1.28.29-1.98,1.46-2.52,2.61-.63.4-1.35,1.6-2.2,1.33s-1.19-1.51-1.85-2c-.21-.16-.34-.43-.54-.6.18-1.12-1.79-1.66-2.2-2.61.91-1.12,2.31-1.52,2.78-2.72.41-1.04,1.61-2,2.67-2h0Z" fill="rgb(85, 46, 96)"/>
  <path d="M292.84,121.98c1.68-1.21,2.74,30.54.04,28.95-.77-9.97-.29-19.08-.04-28.95Z" fill="rgb(197, 183, 153)"/>
  <path d="M256.38,128.45c-1.1.69-2.34,1.26-3.15-.13,3.19-1.99,17.82-11.96,19.69-11.65.27.04.43.62.29.8s-.33.67-.72.91l-16.1,10.07h-.01Z" fill="rgb(196, 183, 143)"/>
  <path d="M306.06,125.15l10.53,17.96c.31.52.6,1.02.17,1.33-.34.25-.44.7-.79.28-4.24-5.13-8.01-12.81-11.38-18.83.08-1.08-1.27-1.9-.56-3.07.41,1.7,1.71,1.8,2.03,2.33Z" fill="rgb(198, 184, 145)"/>
  <path d="M293.71,65.18c.05,2.67.98,12.75-.72,13.05-.27.05-.85-.63-.85-1.11l-.18-20.56c0-.46.32-.97.48-1.2,2.06-3.04,1.29,10.62,1.27,9.81h0Z" fill="rgb(197, 182, 145)"/>
  <path d="M331,128.4c-5.46-3.54-10.57-6.51-15.95-9.57-1.11-.63-2.48-1.43-2.2-2.95,3.17.84,19.91,10.69,19.6,12.19-.05.25-.73.79-1.44.33h0Z" fill="rgb(198, 181, 144)"/>
  <path d="M375.28,170.5v-1.33c2.67-5.33,1.98-12.86-2.43-18.24-2.24-2.73-5.08-5.95-9.46-5.3,3.39,3.54,5.48,6.81,5.89,10.87h-.67c-1.15-5.25-4.05-9.01-8.3-12.65,2.15-1.48,3.87.19,5.63.79,5.56,1.89,8.97,6.34,11,11.46,2.24,5.63.85,9.96-1.66,14.4h0Z" fill="rgb(194, 172, 120)"/>
  <path d="M284.62,78l-4.42-16.91c-.19-.71.02-.94.47-1.39.27-.27.98.06,1.2.86l4.76,17.26c.25.92-.5,1.38-.97,1.37-.73-.01-.82-.35-1.04-1.19Z" fill="rgb(202, 188, 152)"/>
  <path d="M260.82,71.78c.18.12,14.02,11.85,12.35,13.81.81,2.09-21.54-19.71-12.35-13.81Z" fill="rgb(204, 191, 156)"/>
  <path d="M314.35,69.31c-2.24,4.32-4.24,8.14-6.96,11.92-3.89,1.35,8.41-17.64,9.23-18.53,1.86,2.66-1.13,4.41-2.27,6.61h0Z" fill="rgb(200, 187, 152)"/>
  <path d="M268.87,63.54c1.59.69,14.12,20.53,10.07,18.31-.19-.1-11.42-16.94-10.07-18.31Z" fill="rgb(196, 184, 145)"/>
  <path d="M326.41,72.28c-2.14,2.17-10.96,12.45-12.07,12.23-.25-.05-.64.11-.89-.36-.71-1.35,9.9-10.82,11.83-13.03.73-.22,1.73.56,1.14,1.16h0Z" fill="rgb(199, 188, 153)"/>
  <path d="M249.62,118.34c-.83.24-1.01-.62-.87-.79s.32-.72.75-.86l15.14-4.83c.48-.15,1.24.25,1.58.17.39-.1.58,1.34.17,1.46l-16.78,4.85h0Z" fill="rgb(195, 182, 143)"/>
  <path d="M336.88,117.9c-5.51-1.85-10.46-3.23-15.74-4.66-.87-.24-1.2-.41-1.19-1.02,0-.68.42-1.2,1.3-.94l15.88,4.7c.47.14.53.83.75.85.25.03-.14,1.34-1,1.06h0Z" fill="rgb(195, 181, 142)"/>
  <path d="M301.59,77.01c-.21.87-.7,1.45-1.2,1.33-.39-.09-.85-.71-.66-1.43l4.25-16.38c.13-.51.51-.73.66-.98.19-.33,1.31-.37,1.16.26l-4.22,17.2h.01Z" fill="rgb(200, 182, 145)"/>
  <path d="M266.98,90.06c-3.58,1-6.11-1.92-8.57-3.81,4.74,3.64-17.67-11.68-5.09-5.06,4.79,2.52,9.32,4.94,13.66,8.87Z" fill="rgb(194, 182, 145)"/>
  <path d="M234.68,265.13c.08.22-.05.52,0,.75-2.09-1.83-1.35-15.67-1.51-14.74l.77-4.69c.29-1.78-1.21-3.6-.48-5.96l-1.51.66c.53-.8-.02-2.31,1.73-3l.84,7.22c1.54-.16,4.69-.62,4.66,1.1s-3.09,1.25-4.77,1.13c-.54,3.79-.82,14.54.26,17.53h0Z" fill="rgb(92, 69, 105)"/>
  <path d="M333.7,80.62c1.39-.31-14.38,11.98-14.19,9.16-1.97-.75,12.72-9.97,14.19-9.16Z" fill="rgb(200, 187, 149)"/>
  <path d="M271.35,245.85c2.15.67,3.09,3.32,2.39,4.98-.41.98-1.36,1.11-2.02,1.02-2.03-.27-2.72-3.15-3.7-4.7-.57-1.68-2.07-.87-3.39-1.76,2.09-.41,4.59-.2,6.72.46h0Z" fill="rgb(91, 58, 103)"/>
  <path d="M249.44,265.72c1.04.71,2.67.44,3.47,2.42-3.65.28-6.93.58-10.74-.12.58-1.55,2.18-1.23,3-2.35l.19-15.25c0-1.08-.3-1.95-.75-2.57.72-.2,1.45,0,1.44.59l-.23,17.23c0,.73-1,1.7-.07,1.74.99.05,3.34.27,3.78-.29.27-.34-.1-1.01-.1-1.41h.01Z" fill="rgb(98, 68, 101)"/>
  <path d="M259.2,95.5c-2.57-.2,6.07,4.02-11.59-1.23-.35-.1-.21-1.08-.14-1.32.16-.52.81-.17,1.48-.02l9.27,2.06c.55.12.73.49.98.51Z" fill="rgb(198, 184, 145)"/>
  <path d="M307.26,266.47c2.27-2.31,1.48-19.47.81-23.26-3.42,5-7.92,19.73-10.7,23.31-.55-2.66,3.14-5.29,1.63-6.74-.68.91-1.18,1.65-1.99,1.35-.6-.23-5.51-11.4-5.02-12.77,1.89,3.83,3.54,7.81,5.47,12.28l9.78-22.21-7.92,21.46c1.34,0,8.47-21.77,9.43-18.44.11.39.53,1.21.53,1.68l-.12,21.03c0,1.62-.92,2.08-1.9,2.3h0Z" fill="rgb(94, 61, 102)"/>
  <path d="M325.35,235.54c1.62-.48,2.88,1.2,3.16,2.15.41,1.37-.61,2.83-1.91,3.17s-2.73-.58-3.1-1.59c-.51-1.41.03-3.19,1.84-3.73h.01Z" fill="rgb(88, 54, 98)"/>
  <path d="M210.74,263.82c.53.48.81,1.35,1.27,1.92,1.7,2.11,4.98,1.72,7.34.73.35.38.83.57,1.33.67-2.55,1.83-5.62.87-8.62.72l-.67-.03c-.48-.92-1.73-.05-2.58-.08-.18-2.08-.32-4.37.1-6.69.57,1.19.98,2,1.82,2.76h0Z" fill="rgb(94, 66, 104)"/>
  <path d="M246.74,235.54c1.58-.48,2.87,1.21,3.17,2.18.38,1.21-.7,2.81-1.92,3.14-1.35.36-2.76-.6-3.15-1.6-.53-1.37.09-3.18,1.89-3.72h0Z" fill="rgb(83, 49, 97)"/>
  <path d="M328.8,266.45c-.1-.04-.34.01-.83.01.26-.85-.65-1.64-.65-2.69l-.03-17.99c-1.94-.05-3.36.58-5.36.9.47.62,1.13.62,1.39,1.18-.91-.18-2.14.55-3.07-.89,2.3-1.75,4.96-1.92,7.71-1.8l.05,17.93.8,3.34h-.01Z" fill="rgb(103, 87, 104)"/>
  <path d="M257.55,106.03c.21.31-13.88,1.79-12.32-.33-.7-.55,13.68-1.92,12.32.33Z" fill="rgb(198, 181, 140)"/>
  <path d="M340.68,105.68c-3.87.25-7.47.27-11.24.08-4.86-2.52,18.34-1.27,11.24-.08Z" fill="rgb(191, 179, 147)"/>
  <path d="M332.7,95.18c-1.41.08-2.82,1.48-4.47.09.97-1.42,2.54-.31,3.12-1.44,2.06-.03,5.02-2.44,7.54-.76-1.99,1.64-4.18,1.99-6.19,2.11Z" fill="rgb(198, 184, 148)"/>
  <path d="M444.45,226.27c-.65.88.44,1.79.39,2.94-.08,2.22-4.25,2.91-5.24,1.27-.48-1.76,2.77-.3,3.59-1.18,1.43-1.53-2.81-1.26-2.71-1.93l.11-.69c.61,0,1.15-.06,1.68-.12.83-.11,1.2-.79,1.02-1.6.58.22,1.1.69,1.16,1.32h0Z" fill="rgb(94, 66, 101)"/>
  <path d="M436.58,227.84c-1.2-.77-2.66-.75-4.04-.75.86-.76,2.07-.22,3.26-1.18-1.31-2.02-2.69-.75-4-.33-.08-.76-.24-1.26,0-1.72.31-.63,3.93-1.21,4.92.64.46.85-.31,2.2-.14,3.33h0Z" fill="rgb(106, 82, 112)"/>
  <path d="M281.29,265.68c-.28.91-.56,1.41-1.97,1.82l7.45.05c-1.45-.6-2.14-1.12-2.17-2.48.87,1.09,2.32,1.59,3.78,1.68.29.04.31,1.44.02,1.48-3.68.32-7.52.6-11.54-.2,1.06-2.44,3.22-1.25,4.43-2.36h0Z" fill="rgb(140, 114, 139)"/>
  <path d="M221.35,251.12c-.73-1.9-1.84-3.31-3.31-4.61-1.28-1.14-2.71-.37-4.69-1.03,2.06-.76,5.62-.26,8.11.6,1.14.81.93,4.02-.11,5.05h0Z" fill="rgb(98, 70, 110)"/>
  <path d="M203.36,248.47c-.14-1.12.68-1.72,2.04-2.4-1.92-.48-3.78-.35-6.12-.09.86.78,1.81.84,2.04,1.61.66,2.16-3.44,9.9-3.18,12.97l5.21-12.09c-.99,4.92-3.7,9.33-5.21,14.05-.15-.57.06-1.14-.32-2.12-.59.44-.78.98-1.28,1.26l3.5-10.5c.37-1.1.97-2.39.44-3.37-.32-.59-2.39-.39-2.39-1.13,0-2.73,9.59-1.75,8.96-.02-1.43.75-2.78.92-3.7,1.83h0Z" fill="rgb(108, 79, 113)"/>
  <path d="M271.35,245.85c-2.13-.66-4.63-.87-6.72-.46,1.32.89,2.82.08,3.39,1.76-2.75-1.47-5.34-.12-7.42,1.98.32-.78.31-1.67,1.04-2.5-1.09-.26-1.27.47-1.69.55,3.05-2.65,7.8-4.18,11.4-1.33h0Z" fill="rgb(108, 85, 112)"/>
  <path d="M402.64,245.81c-1.73.08-3.32-1.29-5.44-.36,1.59.71,3.47.72,4.1,2.38-1.19-1.32-3.62-1.61-5.11-.93-1.81.83-2.64,2.57-3.59,4.32-.17-1.75,1.44-5.16,4.09-4.94-2.15-1.89-4.88,2.53-6.13,2.87,2.19-4.59,7.69-6.04,12.07-3.34h0Z" fill="rgb(117, 90, 121)"/>
  <path d="M436.58,227.84c.15.95.38,1.84-.1,2.36-1.56,1.67-4.57,1.1-4.84.58-1-1.95,2.75-.65,3.56-1.46,2.19-2.19-5.84-.82-2.66-2.22,1.38,0,2.84-.02,4.04.75h0Z" fill="rgb(96, 69, 103)"/>
  <path d="M444.45,226.27c-.06-.63-.58-1.1-1.16-1.32-.2-.07-.5-.02-.71,0-.5-.85-1.59-.17-2.7.21-.22-.61-.08-.98.04-1.27.34-.84,3.51-.87,4.51.22.44.48.57,1.42.03,2.16h-.01Z" fill="rgb(89, 62, 97)"/>
  <path d="M316,90.58c-3.34-.49-5.03-3.72-8.72-5.42,2.37-.49,3.76,1.03,5.5,2.58l3.22,2.84Z" fill="rgb(179, 157, 167)"/>
  <path d="M225.22,182.49c.18-.38.64-.64.83-1.23-2.38-1.14-3.97-2.63-4.7-4.76h.67c1.46,2.13,3.24,3.58,6.19,4.78-.95.91-2.02.98-2.99,1.21h0Z" fill="rgb(205, 196, 176)"/>
  <path d="M218.69,178.49c-.48,1.2-1.87,1.6-2.78,2.72.41.95,2.38,1.49,2.2,2.61-1.68.51-2.27-1.38-4.02-2.37,1.11-1.28,2.51-2.01,3.94-2.96h.67,0Z" fill="rgb(196, 178, 178)"/>
  <path d="M210.74,263.82c-.85-.77-1.26-1.58-1.82-2.76-.42,2.32-.28,4.61-.1,6.69.85.03,2.11-.84,2.58.08-1.12-.18-1.73,1.17-3,1.18-.45.59-1.07-12.77,1.15-8.5.94.5.64,2.44,1.19,3.32h0Z" fill="rgb(124, 99, 127)"/>
  <path d="M235.99,268.58c.42-1.17,1.87-1.13,2.78-2.45-1.75-.14-2.94.75-4.09-.25-.05-.23.08-.53,0-.75,1.77.99,3.48,0,5.64-1.38.41,2.68-2.22,4.31-4.32,4.84h0Z" fill="rgb(139, 120, 141)"/>
  <path d="M221.35,251.12c1.04-1.03,1.25-4.24.11-5.05-2.49-.85-6.05-1.36-8.11-.6,1.99.66,3.41-.11,4.69,1.03l-4.68.04c-.49-.62-1.27-.8-2.03-.69,4.46-2.96,6.09-.53,11.35-.68-.04,2.56.17,4.76-.13,7.16-.05.41-1.15.12-1.23-.18-.07-.26.15-.72.03-1.04h0Z" fill="rgb(121, 101, 122)"/>
  <path d="M222.69,185.1c-.54,1.15-.47,2.37-1.61,3.83-1.14-1.34-2.48-2.76-2.44-4.5.66.49.98,1.71,1.85,2s1.57-.93,2.2-1.33Z" fill="rgb(204, 194, 183)"/>
  <path d="M272.51,265.15c.12-4.09-4.62,4.38-9.87-1.4,3.98,1.96,8.35,1.49,11.3-3.05,1.83,2.46-.66,3.27-1.43,4.45h0Z" fill="rgb(121, 101, 122)"/>
  <path d="M225.96,129.32c-.23.77.45,1.74-.69,2.65-1.36-1.59-2.33-3.13-2.58-4.83l1.94,2.3c.34.41,1.15.05,1.34-.12h0Z" fill="rgb(207, 192, 157)"/>
  <path d="M218.72,121.17c-.32.69-.83,1.06-1.5,1.91,1.84.54,2.54,1.23,3.53,2.1-1.8-.33-3.69-.7-4.98-2.72.88-1.06,2.05-.95,2.96-1.28h-.01Z" fill="rgb(197, 187, 164)"/>
  <path d="M237.28,157.85c.64-2.33,2.04-4.76,4.12-6.03-.88,2.17-2.19,4.65-4.12,6.03Z" fill="rgb(134, 104, 132)"/>
  <path d="M222.02,176.49h-.67c-1.06,0-2.25.96-2.67,2h-.67c.66-1.41,1.54-2.66,2.56-4.36,1.18.85.99,1.71,1.44,2.36h0Z" fill="rgb(209, 198, 172)"/>
  <path d="M306.06,125.15c-.31-.54-1.62-.63-2.03-2.33-.71,1.17.64,1.98.56,3.07.07,2.41-3.98-7.35-1.84-5.64,1.19,1.93,2.77,3.12,3.3,4.91h.01Z" fill="rgb(203, 194, 165)"/>
  <path d="M243.32,148.52c.19-2.01,1.34-3.87,2.72-5.38-.17,2.03-.91,4.31-2.72,5.38Z" fill="rgb(131, 100, 129)"/>
  <path d="M404.58,266.56c-.14-1.37,1.79-1.29,2.08-3.33-1.3.77-2.25,1.09-3.42,1.39,1.08-1.13,2.47-1.99,4.05-3.33,1.15,2.79-1.16,4.17-2.71,5.27h0Z" fill="rgb(142, 122, 141)"/>
  <path d="M335.97,171.24c.91-1.49,1.86-3.27,3.37-4.09-1.02,1.36-1.08,4.2-3.37,4.09Z" fill="rgb(128, 97, 124)"/>
  <path d="M331.35,93.83c-.58,1.13-2.15.02-3.12,1.44,1.65,1.39,3.06,0,4.47-.09-.73,1.38-4.35,2.2-5.05.48-.35-1.68,2.54-1.82,3.7-1.83h0Z" fill="rgb(211, 200, 175)"/>
  <path d="M219.42,265.79c-.11.17,0,.48-.07.67-2.36.99-5.64,1.38-7.34-.73,2.41.81,5.11,1.29,7.41.05h0Z" fill="rgb(124, 99, 127)"/>
  <path d="M212.07,267.86c3,.14,6.07,1.11,8.62-.72.92-.66,1.75-1.43,2.72-2.01.18,3.64-9.6,5.27-11.34,2.74h0Z" fill="rgb(124, 99, 127)"/>
  <path d="M442.58,224.96c.21-.02.51-.08.71,0,.18.81-.18,1.5-1.02,1.6-.52.07-1.06.13-1.68.12.15-1,1.01-1.61,1.98-1.72h0Z" fill="rgb(236, 233, 219)"/>
  <path d="M289.93,113.2c-6.54-2.47-9.42-8.48-7.41-14.51,1.9-5.69,8.64-9.04,14.69-6.73s8.29,8.54,6.55,14.03c-1.73,5.45-8.16,9.35-13.84,7.21h.01ZM296.41,108.5c3.25-1.6,4.36-5.98,2.94-8.96-1.2-2.52-4.66-4.96-7.56-4.01-4.41,1.44-6.35,5.09-4.92,9.19,1.18,3.37,5.35,5.84,9.53,3.78h.01Z" fill="rgb(199, 166, 98)"/>
  <path d="M321.03,103.02c-5.23,4.96-11.01,8.49-17.81,9.85,4.45-6.1,4.76-12.69,1.4-19.31,6.24,1.81,11.08,5.16,16.41,9.46Z" fill="rgb(225, 220, 211)"/>
  <path d="M280.05,107.2c.98,1.69,1.61,3.6,3.44,5.56-2.09.85-3.06-1.28-4.77-.94-.24-1.21-1.67-1.36-2.73-1.37-1.9-1.08-9.87-5.22-10.05-6.96-.17-1.62,10.22-7.68,13.36-8.88.49-.02,1.02-.08,1.13.37-.1-.4-1.75,7.88-1.81,8.14-.53,2.12.76,2.93,1.43,4.08Z" fill="rgb(226, 221, 212)"/>
  <path d="M298.63,85.14c-1.74.38,6.63,2.95,6.08,2.87-.2.48.47.51.61,1.14l-4.74-.56c-5.29-.62-10.7-.78-15.88.58-2.44-.36-4.22,1.04-6.73,2.3.95-2.58,3.58-2.61,5.35-3.62.69-1.04,1.97-1.22,3.34-2.04,1.35-1.73,9.83-1.5,11.97-.68h0Z" fill="rgb(221, 210, 199)"/>
  <path d="M311.95,91.67c-.51-.06-1.19,1.07-.75,1.44-3.31-1.97-8.68-3.27-10.61-4.52l4.74.56c-.14-.63-.81-.66-.61-1.14,2.7.41,5.21,1.89,7.23,3.66h0Z" fill="rgb(206, 192, 187)"/>
  <path d="M280.05,107.2c-.67-1.16-1.96-1.96-1.43-4.08.06-.26,1.71-8.54,1.81-8.14-.11-.45-.64-.39-1.13-.37.97-.37,1.89-2.27,3.42-.79-4.12,4.17-2.42,8.33-2.67,13.38Z" fill="rgb(160, 132, 145)"/>
  <path d="M283.32,86.52v1.33c-1.77,1-4.39,1.04-5.35,3.62,2.51-1.26,4.29-2.66,6.73-2.3-2.94,1.58-6.25,2.57-9.39,3.87-.04-.45-.21-.89-.59-1.15,1.38-1.92,3.96-2.62,6.28-3.74,1-.48,1.31-1.44,2.31-1.63h.01Z" fill="rgb(181, 160, 166)"/>
  <path d="M314.62,95.03c.62.13,1.11-.12,1.67-.36l-1.71-1.55c3.29,1.28,5.82,4.21,8.64,7.32-3.06-1.47-5.83-3.46-8.6-5.41h0Z" fill="rgb(144, 115, 134)"/>
  <path d="M271.97,95.01c-1.22,1.53-3.12,2.19-4.63,3.3-.37-.09-.75-.2-1.1-.36,1.35-1.9,3.15-2.96,5.18-3.93.09.36.1.91.55.99h0Z" fill="rgb(148, 117, 136)"/>
  <path d="M274.73,91.89c.38.26.54.7.59,1.15-.71.29-1.2,1.19-1.99,1.4-.3.14-1.02.22-.68.69-.21-.01-.47-.08-.68-.12-.45-.08-.46-.63-.55-.99,1.01-.48,1.93-2.26,3.32-2.13h-.01Z" fill="rgb(194, 171, 175)"/>
  <path d="M314.58,93.11l1.71,1.55c-.56.24-1.05.49-1.67.36-.99-.7-2.39-1.3-3.43-1.92.34.29,1.16.54,1.71.15.19-.14.43-.21.27-.68-.08-.23-.04-.49-.32-.73.81-.03,1.15,1.04,1.73,1.27h0Z" fill="rgb(172, 149, 158)"/>
  <path d="M267.33,98.31c-1.26.93-2.23,2.43-4.12,2.69.36-2.15,2.33-2.08,3.02-3.05.35.16.72.27,1.1.36Z" fill="rgb(113, 76, 108)"/>
  <path d="M304.71,88c.55.08-7.82-2.49-6.08-2.87,1.84.7,7.21,1.14,6.08,2.87Z" fill="rgb(189, 169, 170)"/>
  <path d="M312.85,91.85c.28.24.25.5.32.73.16.48-.08.55-.27.68-.54.39-1.36.14-1.71-.15-.44-.38.24-1.51.75-1.44.3.02.6.19.9.18h0Z" fill="rgb(211, 196, 194)"/>
  <path d="M278.72,111.82c-1.33.26-1.83-.85-2.73-1.37,1.06,0,2.49.16,2.73,1.37Z" fill="rgb(142, 113, 134)"/>
  <path d="M286.66,85.82c-1.37.81-2.65,1-3.34,2.04v-1.33c1.1-.21,2.1-1.11,3.34-.7h0Z" fill="rgb(200, 185, 182)"/>
  <path d="M272.64,95.12c-.34-.46.38-.55.68-.69-.24.06-.34.71-.68.69Z" fill="rgb(148, 117, 136)"/>
  <path d="M401.31,247.83c1.23,1.37,1.94,3.66,1.67,5.7-3.52.29-6.83.55-10.22-.06-.88-.16-.09-1.69-.15-2.26.95-1.75,1.78-3.49,3.59-4.32,1.49-.68,3.92-.39,5.11.93h0Z" fill="rgb(224, 219, 210)"/>
  <path d="M364.62,249.14c.73-.74,2.04-1.17,2.67-1.99.69-.02,1.41-.34,2.15-.17.27.06.09.59,0,.71-3.06,4.23-3.64,11.06-.52,15.76,1.97,2.96,6.98,1.98,9.23.01.53-3.81,1.49-14.16-1.59-16.21-.1-.67-.94-.54-1.35-1.3,1.69-.31,3,0,3.99-.9,0,.99-.3,1.4-1.99,1.73,4.56,2.05.2,19.27,2.5,20.67.42.26,1.37-.22,2.61-.4.46-1.24-.93-2.47-.94-4l-.21-27.9c-1.44.1-1.81.56-2.62.81-.37.11-.48.42-.07,1.02-.23-.23-.44-.31-.59.03-.89-.03-2.09.75-2.98-.7,2.09-1.78,4.89-1.49,7.02-1.59l.24,27.72c.01,1.17-.28,2.48.76,3.26.49.37,1.57.06,2.39,1.41-2.2.67-4.54,1.37-6.47,1.58-.3-7.4-3.42,2.33-10.38-.28s-7-13.08-3.85-19.28h0Z" fill="rgb(79, 39, 94)"/>
  <path d="M379.19,245.05c-.99.9-2.31.59-3.99.9.41.76,1.25.63,1.35,1.3-2.01-1.33-4.81-.53-7.13.44.1-.13.28-.65,0-.71-.74-.16-1.46.15-2.15.17,2.33-3.02,6.68-3.27,10.78-1.77.79-3.16-.16-5.73-.19-8.36.16-.34.37-.25.59-.03,1.22,2.53.74,5.32.72,8.06h.02Z" fill="rgb(100, 73, 104)"/>
  <path d="M375.28,169.16c-1.55,3.18-3.73,6-7.33,5.82-.22,1-.11,1.52-.44,1.77-.42.33-1.59.24-2.1.5-3.59,1.88-7.36,2.65-10.95.58,2.45-1.12,4.04,1.2,5.57-.45-1.66-1.24-3,.65-4.16-.73,9.94-.85,14.22-12.06,13.41-20.16-.41-4.06-2.5-7.34-5.89-10.87,4.38-.65,7.22,2.57,9.46,5.3,4.41,5.38,5.1,12.9,2.43,18.24h0Z" fill="rgb(194, 162, 92)"/>
  <path d="M327.97,266.46c-1.1.92-2.71.99-3.78.39l.79-18.45.33,16.81c.6.73,1.67.73,2.66,1.25h0Z" fill="rgb(62, 23, 72)"/>
  <path d="M203.36,248.47l-5.21,12.09c-.26-3.07,3.84-10.82,3.18-12.97-.24-.77-1.19-.83-2.04-1.61,2.35-.26,4.2-.39,6.12.09-1.36.68-2.19,1.28-2.04,2.4h0Z" fill="rgb(82, 43, 89)"/>
  <path d="M296.41,108.5c-4.18,2.05-8.35-.41-9.53-3.78-1.43-4.09.51-7.75,4.92-9.19,2.9-.95,6.36,1.49,7.56,4.01,1.41,2.98.31,7.37-2.94,8.96h-.01Z" fill="rgb(73, 32, 88)"/>
  <path d="M376.55,247.25c3.08,2.05,2.12,12.4,1.59,16.21-2.25,1.96-7.27,2.95-9.23-.01-3.12-4.7-2.54-11.52.52-15.76,2.31-.97,5.12-1.77,7.13-.44h0Z" fill="rgb(226, 222, 212)"/>
  <path d="M379.19,245.05c.02-2.74.5-5.53-.72-8.06-.4-.61-.29-.91.07-1.02.81-.24,1.18-.7,2.62-.81l.21,27.9c.01,1.53,1.4,2.76.94,4-1.24.17-2.19.65-2.61.4-2.29-1.4,2.07-18.62-2.5-20.67,1.69-.33,1.98-.75,1.99-1.73h0Z" fill="rgb(75, 32, 93)"/>
</svg>